<?xml version="1.0" encoding="UTF-8" standalone="no"?>
<!-- Created with Inkscape (http://www.inkscape.org/) -->

<svg
   version="1.1"
   id="svg75"
   width="703.95996"
   height="986.95709"
   viewBox="0 0 703.95996 986.95709"
   sodipodi:docname="Lizard1b.svg"
   inkscape:version="1.2.2 (732a01da63, 2022-12-09, custom)"
   xmlns:inkscape="http://www.inkscape.org/namespaces/inkscape"
   xmlns:sodipodi="http://sodipodi.sourceforge.net/DTD/sodipodi-0.dtd"
   xmlns="http://www.w3.org/2000/svg"
   xmlns:svg="http://www.w3.org/2000/svg">
  <defs
     id="defs79" />
  <sodipodi:namedview
     id="namedview77"
     pagecolor="#ffffff"
     bordercolor="#000000"
     borderopacity="0.25"
     inkscape:showpageshadow="2"
     inkscape:pageopacity="0.0"
     inkscape:pagecheckerboard="0"
     inkscape:deskcolor="#d1d1d1"
     showgrid="false"
     inkscape:zoom="0.75839552"
     inkscape:cx="352.05904"
     inkscape:cy="491.8278"
     inkscape:window-width="1920"
     inkscape:window-height="1031"
     inkscape:window-x="0"
     inkscape:window-y="25"
     inkscape:window-maximized="1"
     inkscape:current-layer="layer6" />
  <g
     inkscape:groupmode="layer"
     id="layer6"
     inkscape:label="Layer 1">
    <path
       style="fill:#000000;stroke-width:1.33333"
       d="m 324.25031,1018.6329 c -2.56667,-0.3318 -11.90168,-2.051 -20.74448,-3.8203 C 224.67616,999.03955 151.84936,937.76071 135.54435,873.4845 125.54,834.04615 134.4179,794.54973 160.0499,764.4631 c 20.84717,-24.47024 45.64366,-36.33121 75.53374,-36.13024 32.13691,0.21607 56.1025,11.86608 84.95498,41.29784 24.39603,24.88583 38.95699,32.38335 59.77415,30.77805 9.19484,-0.70905 10.77342,-0.48522 13.89508,1.97027 2.6738,2.10323 3.42392,3.74469 3.11542,6.81753 -0.58802,5.85746 -5.38638,8.71519 -17.40629,10.36656 -24.11484,3.31308 -47.13783,-5.43102 -72.33628,-27.4732 -17.93687,-15.69016 -23.49006,-19.60797 -35.76419,-25.23188 -32.79964,-15.02852 -63.72377,-6.501 -82.13357,22.64884 -11.32554,17.93274 -15.65886,40.07132 -11.58926,59.20859 4.19819,19.74192 14.3851,36.32236 33.66386,54.79208 24.03313,23.02456 52.50422,38.53241 85.8261,46.74843 16.86138,4.15742 53.1515,4.57596 70.35757,0.81142 42.43094,-9.28349 77.44992,-31.06848 91.45477,-56.89318 13.96949,-25.75952 16.50481,-61.07347 6.69731,-93.28518 -10.96176,-36.00268 -36.67802,-67.99088 -79.84299,-99.31593 -43.19565,-31.34731 -72.88462,-57.78641 -99.63912,-88.73223 -23.60126,-27.29858 -47.09011,-65.99764 -53.8173,-88.66666 -1.30573,-4.4 -2.79497,-8.50278 -3.30942,-9.11727 -0.51444,-0.61451 -5.65259,0.95492 -11.41808,3.4876 -12.42567,5.45837 -24.1047,8.25132 -43.14096,10.31685 -7.69535,0.83498 -14.14188,1.66847 -14.3256,1.8522 -0.18374,0.18374 3.50701,3.72728 8.20164,7.87456 16.30808,14.4067 27.44885,32.68016 27.44885,45.02252 0,8.53136 -4.24789,14.75442 -24.05589,35.24124 -10.24608,10.59722 -21.2456,23.32996 -24.44339,28.29499 -6.15853,9.562 -13.55621,25.53211 -17.46064,37.69397 -5.63283,17.54568 -11.35441,13.3009 -13.4791,-10 -1.10044,-12.06822 0.98017,-22.90445 6.72019,-35 2.52306,-5.31666 4.29305,-9.66666 3.93331,-9.66666 -0.35973,0 -3.18016,1.2821 -6.26761,2.84913 -14.59649,7.40837 -20.59081,13.66921 -32.946876,34.41179 -10.22915,17.17204 -14.47472,12.418 -10.04095,-11.24352 3.53171,-18.84752 9.19915,-28.45136 22.041896,-37.35139 2.95938,-2.05085 5.16664,-3.94287 4.90503,-4.20448 -0.26162,-0.26161 -5.810266,0.45461 -12.330336,1.59163 -8.06674,1.40672 -15.7829,3.92809 -24.14835,7.89084 -10.67965,5.059 -12.51007,5.56282 -13.94194,3.83752 -2.32854,-2.80572 1.46794,-9.4247 10.06361,-17.54538 8.43298,-7.967 16.43841,-12.6665 26.78438,-15.72353 l 7.99999,-2.36383 -6.66666,-1.61306 c -3.66667,-0.88719 -13.1355,-1.67067 -21.04185,-1.74106 -12.03346,-0.1072 -14.51225,-0.48521 -15.21664,-2.32081 -1.15476,-3.00927 2.0549,-5.07635 14.12269,-9.09529 11.48904,-3.8262 21.40445,-4.23115 37.802456,-1.54383 5.68334,0.93139 10.33334,1.54792 10.33334,1.37008 0,-0.17783 -7.58419,-4.28199 -16.85375,-9.12035 -41.747456,-21.79058 -61.679566,-39.57528 -61.783626,-55.12729 -0.0709,-10.59873 8.32935,-19.98843 21.23986,-23.74163 11.90368,-3.46049 22.68757,-9.08134 34.06419,-17.75518 12.687666,-9.67342 24.593566,-16.10882 37.333326,-20.17948 7.97916,-2.54955 13.5893,-3.11314 38.66667,-3.88446 32.70914,-1.00604 37.48827,-2.09105 44.52842,-10.10934 2.16604,-2.46698 4.83642,-7.88162 6.01449,-12.19535 13.91043,-50.93581 34.25251,-91.40572 59.37995,-118.13445 10.5212,-11.19168 36.01749,-31.69714 60.31092,-48.50518 l 14.23375,-9.84801 -0.6699,-7.63537 c -1.37972,-15.72616 -4.88018,-31.0307 -12.72492,-55.63539 -7.13383,-22.37491 -8.09628,-26.68195 -8.24155,-36.88171 -0.15058,-10.57182 0.11507,-11.84682 3.14084,-15.07761 4.5251,-4.83163 15.72753,-9.94988 39.36133,-17.98367 22.93677,-7.79686 37.6279,-15.927913 47.35801,-26.211093 4.58208,-4.84254 6.70401,-8.32288 7.31628,-12.000003 2.29465,-13.781031 6.32133,-26.971689 9.71767,-31.833269 2.44717,-3.502931 6.62604,-6.826562 12.2318,-9.728487 13.75972,-7.12296 18.82897,-3.826725 10.3153,6.707437 -7.27461,9.001072 -8.16894,11.496516 -8.1215,22.661326 0.0241,5.675777 0.43553,10.711277 0.91425,11.190001 1.88896,1.888955 4.94428,-2.862128 8.27805,-12.872536 1.92255,-5.772912 4.62452,-11.931459 6.00438,-13.685659 4.982,-6.333581 31.22662,-15.062952 37.75484,-12.557842 4.39838,1.687816 2.46296,6.04083 -4.76908,10.726305 -10.86622,7.039971 -13.83684,10.992208 -17.03022,22.657721 -1.57248,5.744339 -2.6206,10.682706 -2.32916,10.974156 0.29146,0.29145 7.37739,-2.758461 15.74652,-6.777581 17.046,-8.186024 20.64116,-8.697624 36.22031,-5.154224 16.51131,3.755419 22.09225,7.158116 20.41384,12.446315 -1.03881,3.273 -3.04041,3.74658 -18.96843,4.48798 -11.92458,0.55505 -12.79397,0.82266 -30,9.23464 -17.87248,8.737803 -26.3862,15.162243 -26.3862,19.910983 0,5.3281 18.07775,10.0849 40,10.52522 10.66368,0.21419 14.64974,1.2638 16.54048,4.35545 2.65602,4.343 -2.9473,6.94464 -23.49048,10.90676 -17.24165,3.32535 -20.84304,3.59786 -37.93885,2.87076 -14.56505,-0.61945 -20.64332,-0.34636 -26.55343,1.19303 -9.66493,2.5174 -19.61344,7.48727 -26.8378,13.40708 -3.0878,2.53023 -7.77828,5.50463 -10.42328,6.60977 l -4.80909,2.00938 4.08137,4.64842 c 5.01256,5.70899 9.14158,13.57562 12.19864,23.24095 l 2.31948,7.33333 7.78982,-0.22925 c 11.74168,-0.34556 27.46941,-6.46416 69.78981,-27.15051 40.53867,-19.81541 52.79103,-24.22124 87.24392,-31.37198 16.49943,-3.42448 32.75529,-4.50354 101.47773,-6.73607 24.54548,-0.79739 28.916,-0.62541 34.93784,1.37472 7.40974,2.46111 14.34134,8.99592 15.82888,14.92277 1.47995,5.89658 -0.44306,17.19842 -4.18161,24.57611 -1.97471,3.89689 -4.41415,9.82927 -5.42097,13.18307 -1.00683,3.3538 -4.99302,10.27577 -8.85819,15.38217 -6.88807,9.10003 -53.06595,52.55409 -67.85831,63.85565 -8.84216,6.75555 -23.2345,11.8972 -42.5086,15.18619 -11.03566,1.88315 -14.23554,1.98397 -19.37125,0.61039 -5.53693,-1.48091 -6.51959,-1.3836 -9.82963,0.97334 -5.11941,3.64535 -16.63492,8.05035 -26.12648,9.9941 -7.66181,1.56904 -8.23898,1.97934 -13.65322,9.70609 -3.10928,4.43729 -10.00928,11.53436 -15.33334,15.77127 -5.32406,4.2369 -10.18558,8.14485 -10.80341,8.68433 -0.61781,0.53948 2.64977,7.4954 7.26129,15.45759 4.61154,7.96217 9.9738,18.37669 11.91615,23.14336 l 3.53156,8.66666 11.20716,1.15771 c 21.09603,2.17921 34.19655,1.56383 45.48492,-2.13667 14.41659,-4.72596 20.65612,-8.7554 36.87191,-23.81161 15.7223,-14.59803 24.9636,-20.17465 44.0029,-26.5534 12.31288,-4.1252 16.60962,-4.26956 18.01572,-0.60527 1.30856,3.41006 -0.31804,5.10063 -12.91577,13.42371 -7.35837,4.86153 -15.18131,11.44129 -19.41936,16.33333 -3.90336,4.50571 -6.84111,8.1922 -6.52831,8.1922 0.31279,0 4.42216,-1.64697 9.13192,-3.65994 8.04072,-3.43663 9.74284,-3.65786 27.89655,-3.6256 22.24292,0.0395 29.33333,1.9058 29.33333,7.72092 0,1.78096 -0.75,3.8256 -1.66666,4.54364 -0.91667,0.71804 -8.84067,2.69388 -17.6089,4.39073 -17.92734,3.46939 -28.72849,8.19587 -41.12836,17.99743 -7.19641,5.68844 -10.08973,9.25029 -8.66854,10.67148 0.32468,0.32466 5.9488,-0.0679 12.49805,-0.87215 14.61532,-1.79499 26.41581,-0.032 37.77335,5.64348 9.62574,4.81004 21.84073,17.20593 21.22504,21.53936 -0.6022,4.23835 -4.29614,4.33201 -17.6912,0.44865 -16.89136,-4.89697 -24.66015,-5.43893 -39.39944,-2.74853 -14.71176,2.68537 -19.13052,4.12132 -18.05206,5.86631 0.42628,0.68974 4.10654,3.16016 8.17831,5.4898 14.78455,8.45885 29.93969,27.69526 25.77388,32.71476 -2.59668,3.1288 -5.19104,2.2358 -19.19425,-6.60686 -17.45208,-11.02053 -21.78554,-13.16248 -35.14372,-17.37093 -17.32699,-5.45879 -33.02498,-7.46035 -58.8955,-7.50941 -32.90214,-0.0624 -55.94,-1.95206 -66.45366,-5.45078 -7.17195,-2.38666 -10.19855,-4.41596 -17.45236,-11.70154 -11.08954,-11.13812 -21.35796,-24.82835 -27.61264,-36.81415 -2.67879,-5.13333 -5.05319,-9.55356 -5.27644,-9.82273 -0.22324,-0.26916 -5.02015,3.46346 -10.65978,8.29474 -5.82476,4.98988 -12.90842,9.71999 -16.39949,10.95074 -3.38009,1.19164 -7.38117,2.644 -8.89129,3.22746 -1.69752,0.65588 -3.40847,3.27924 -4.48188,6.87199 -2.98984,10.007 -6.87634,16.20625 -15.41772,24.59252 -7.37434,7.2404 -8.34927,8.82067 -9.04844,14.66667 -0.43098,3.60357 -1.14478,7.48306 -1.58622,8.62109 -0.67597,1.74265 1.62894,2.33587 14.60726,3.75947 20.56342,2.25564 38.17342,6.67054 58.15264,14.57917 9.08601,3.59663 20.96765,8.21599 26.40364,10.26524 12.87828,4.85483 19.42436,10.82769 24.83501,22.66031 7.40945,16.20382 17.59987,46.07037 22.18845,65.03098 2.43444,10.05939 4.84039,18.29262 5.34656,18.29607 0.50616,0.004 4.83162,-2.99159 9.61212,-6.65563 11.97234,-9.1763 23.2179,-15.11568 38.13424,-20.1407 11.36879,-3.82992 14.34466,-4.28066 29.04291,-4.39894 16.67297,-0.13417 19.80239,0.78063 18.07444,5.2836 -0.34976,0.91147 -9.74425,5.10518 -20.87664,9.31935 -11.13239,4.21416 -22.34071,8.71788 -24.90737,10.00825 -5.49792,2.76403 -12.88554,10.14926 -11.51927,11.51552 0.52415,0.52415 7.50204,-0.65726 15.50643,-2.62537 l 14.55342,-3.57837 13.01295,3.301 c 16.29963,4.13473 25.11313,8.33816 25.11313,11.9772 0,2.4499 -1.40666,2.79214 -17.33333,4.217 -10.89433,0.97465 -21.50015,2.83017 -28.55011,4.99493 -6.16922,1.89432 -11.40854,3.63597 -11.64292,3.87035 -0.23437,0.23437 2.71319,1.21838 6.55012,2.18669 15.80579,3.98883 25.09006,10.94779 32.96195,24.70641 4.43797,7.75678 4.99957,11.54743 2.07091,13.978 -1.57619,1.30812 -5.16611,-0.0165 -19,-7.0109 -18.15648,-9.17987 -26.35795,-11.60878 -39.1982,-11.60878 h -8.01032 l 9.1313,7.87862 c 11.02924,9.51614 14.85311,16.2514 19.6074,34.53578 4.10194,15.77551 4.08766,20.72746 -0.0615,21.31984 -2.22766,0.31806 -4.54204,-2.16206 -11.1981,-12 -13.68994,-20.23429 -17.72833,-23.5112 -38.61334,-31.33236 -13.38419,-5.01221 -42.4831,-20.51673 -48.29983,-25.73521 -4.17303,-3.74383 -6.66711,-8.22619 -12.61224,-22.66667 -7.42032,-18.02366 -15.10436,-39.75042 -17.78,-50.27333 -2.03168,-7.99031 -3.95905,-9.32385 -14.97723,-10.36268 -11.78825,-1.11143 -33.99994,-4.29939 -41.15242,-5.90644 -2.87402,-0.64575 -5.22547,-0.77985 -5.22547,-0.29801 0,0.48182 2.1,3.99438 4.66667,7.80566 2.56666,3.81128 4.66666,7.44102 4.66666,8.06608 0,0.62507 1.84612,2.89874 4.10248,5.0526 2.25638,2.15387 12.25291,14.71612 22.21455,27.91612 13.21181,17.50678 23.40357,29.23066 37.67039,43.33334 30.0626,29.71674 48.43521,54.31636 63.40897,84.90001 31.06776,63.4554 32.75788,134.31952 4.6132,193.42365 -8.83651,18.55678 -18.34611,32.06135 -32.65185,46.36892 -26.39195,26.39526 -65.8331,46.34411 -111.08675,56.18631 -13.49084,2.9341 -19.48699,3.4472 -44.27099,3.7884 -15.76665,0.217 -30.76665,0.1232 -33.33332,-0.2086 z"
       transform="translate(-40.279149,-32.001369)"
       id="path193" />
    <g
       inkscape:groupmode="layer"
       id="layer5"
       inkscape:label="Body-down"
       style="display:inline">
      <path
         style="fill:#00ff00;stroke-width:1.33333"
         d="m 527.16443,319.22553 c 10.72716,-8.15522 20.46347,-21.63336 18.78184,-26.00003 -0.95894,-2.49009 -1.80408,-2.16164 -12.36264,4.80461 -8.89541,5.86895 -11.97866,8.75716 -14.33333,13.42662 -2.79839,5.54937 -4.11465,14.71748 -2.11299,14.71748 0.48786,0 5.00006,-3.12691 10.02712,-6.94868 z"
         transform="translate(-40.279149,-32.001369)"
         id="path305" />
      <path
         style="fill:#00ff00;stroke-width:1.33333"
         d="m 427.14906,390.47181 c 5.42709,-2.06118 26.43457,-18.2231 26.43457,-20.33722 0,-1.5702 -7.98022,-13.29372 -9.04906,-13.29372 -3.06696,0 -32.34256,19.9172 -36.32004,24.70978 -1.40126,1.6884 -0.82987,2.761 3.51458,6.59769 6.03339,5.32824 7.08938,5.48735 15.41995,2.32347 z"
         transform="translate(-40.279149,-32.001369)"
         id="path303" />
      <path
         style="fill:#00ff00;stroke-width:1.33333"
         d="m 398.11922,425.28837 c 6.29661,-6.20767 11.01752,-14.07174 14.02389,-23.36096 1.54874,-4.78534 1.45787,-5.03648 -3.48464,-9.63059 -2.79116,-2.59443 -5.51164,-4.73336 -6.04552,-4.7532 -1.6241,-0.0604 -15.3833,17.29555 -20.43729,25.77971 l -4.75063,7.9749 5.74598,5.0478 c 3.16028,2.7763 6.3971,5.07339 7.19294,5.10466 0.79584,0.0313 4.28572,-2.74178 7.75527,-6.16232 z"
         transform="translate(-40.279149,-32.001369)"
         id="path301" />
      <path
         style="fill:#00ff00;stroke-width:1.33333"
         d="m 385.36961,450.77814 c 0.85105,-1.86784 1.54736,-6.01743 1.54736,-9.22129 0,-5.17675 -0.57798,-6.283 -5.19187,-9.93727 -2.85553,-2.26163 -5.76096,-4.11204 -6.45651,-4.11204 -1.2048,0 -8.40384,21.50641 -8.36849,25 0.012,1.15629 2.60528,1.66667 8.46951,1.66667 7.7639,0 8.57873,-0.27672 10,-3.39607 z"
         transform="translate(-40.279149,-32.001369)"
         id="path299" />
      <path
         style="fill:#00ff00;stroke-width:1.33333"
         d="m 409.57411,561.17421 c -0.005,-0.55 -3.15524,-5.76336 -7,-11.58526 -5.00009,-7.57133 -8.02956,-10.85901 -10.63986,-11.54673 -3.41622,-0.90005 -3.55182,-0.77745 -2.12224,1.91859 3.58501,6.76094 15.95424,22.2134 17.78116,22.2134 1.09476,0 1.98618,-0.45 1.98094,-1 z"
         transform="translate(-40.279149,-32.001369)"
         id="path297" />
      <path
         style="fill:#00ff00;stroke-width:1.33333"
         d="m 432.73019,589.84087 c -11.13429,-15.34082 -18.14732,-23.66666 -19.93493,-23.66666 -1.03307,0 -1.87829,0.6538 -1.87829,1.45288 0,1.36852 25.08554,29.21378 26.31842,29.21378 0.31646,0 -1.71089,-3.15 -4.5052,-7 z"
         transform="translate(-40.279149,-32.001369)"
         id="path295" />
    </g>
    <g
       id="layer2"
       inkscape:label="Body-up"
       style="display:inline">
      <path
         style="fill:#008000;stroke-width:1.33333"
         d="m 329.58364,1013.4413 c 0,-0.4031 -0.94424,-2.5589 -2.09832,-4.7906 -1.15406,-2.2317 -1.80213,-4.3539 -1.44013,-4.7159 0.36201,-0.362 3.76013,1.7938 7.55139,4.7906 6.13664,4.8507 7.68254,5.4488 14.08521,5.4488 h 7.19203 l -2.21739,-4.65 c -3.27822,-6.8745 -1.10213,-7.255 5.33896,-0.9335 5.1939,5.0974 6.28734,5.5835 12.56002,5.5835 3.77897,0 7.18682,-0.5113 7.57301,-1.1362 0.38619,-0.6248 -0.46933,-3.4339 -1.90115,-6.2423 -1.43182,-2.8085 -2.29981,-5.4098 -1.92886,-5.7808 0.37096,-0.3709 3.32338,1.9253 6.56094,5.1027 l 5.88648,5.7772 7.68392,-0.9031 c 4.22615,-0.4967 7.97219,-1.1914 8.32454,-1.5437 0.35233,-0.3524 -0.36692,-2.7535 -1.59836,-5.3358 -3.62862,-7.60925 -2.61262,-8.19325 3.61718,-2.0792 l 5.85615,5.7474 7.81052,-2.1983 c 4.29579,-1.209 8.51645,-2.4346 9.37927,-2.7236 1.12545,-0.377 0.84441,-2.4318 -0.99456,-7.27155 -1.40983,-3.7103 -2.13848,-6.7461 -1.61923,-6.7461 0.51925,0 3.42457,2.4344 6.45627,5.4098 l 5.51216,5.4098 8.81342,-3.5283 8.81344,-3.5282 -2.05482,-5.1356 c -1.13016,-2.8245 -1.82594,-6.2212 -1.54618,-7.5482 0.39366,-1.86708 1.50494,-1.0196 4.91467,3.7481 l 4.40599,6.1606 8.61085,-4.786 c 7.10956,-3.9516 8.48069,-5.2582 7.86433,-7.49403 -0.41058,-1.48937 -1.14437,-5.10795 -1.63064,-8.04128 -0.81965,-4.94435 -0.71593,-5.19455 1.42196,-3.43044 1.26835,1.04659 3.18194,3.59659 4.25242,5.66667 1.07048,2.07008 2.44462,3.76377 3.05368,3.76377 0.60904,0 3.78588,-2.04521 7.05964,-4.54491 l 5.95229,-4.54492 -0.60093,-8.3078 c -0.67008,-9.26386 1.1499,-9.95142 4.58428,-1.73182 l 1.89901,4.545 4.72591,-3.60462 4.72589,-3.60462 -0.42763,-10.43962 c -0.2352,-5.7418 -0.0312,-10.43821 0.45342,-10.43649 0.48458,10e-4 2.1881,2.70313 3.78561,6.00313 1.59751,3.3 3.06943,6 3.27095,6 0.2015,0 2.03442,-2.40697 4.07313,-5.34884 3.44788,-4.97529 3.65201,-6.00184 2.92287,-14.69909 -0.83824,-9.9984 0.0617,-10.76485 4.35337,-3.70773 l 2.4042,3.95336 4.19889,-7.33891 4.1989,-7.33891 -2.69427,-7.6657 c -1.48185,-4.21615 -2.43824,-7.92175 -2.12531,-8.2347 0.31295,-0.31293 2.1441,1.00614 4.06922,2.93126 1.92513,1.92513 4.02682,3.17478 4.67044,2.777 3.33372,-2.06035 2.95948,-16.92592 -0.70476,-27.9944 -0.62643,-1.89226 0.34198,-1.37128 3.33472,1.79396 2.31964,2.45333 4.6248,4.05333 5.12258,3.55554 0.49779,-0.49778 0.90507,-4.63013 0.90507,-9.18298 0,-6.39274 -0.82051,-9.85942 -3.60283,-15.22223 -4.12477,-7.95032 -3.16496,-8.70764 3.55643,-2.80617 l 4.71307,4.13812 -0.0133,-5.13812 c -0.0177,-6.99222 -4.98332,-17.05894 -12.54537,-25.43318 l -6.28653,-6.9617 4.2663,1.48724 c 2.34647,0.81798 6.88659,3.9979 10.08914,7.06649 l 5.82282,5.57925 v -5.65494 c 0,-8.46578 -7.03749,-21.06674 -15.71661,-28.14134 -3.8772,-3.16064 -6.10331,-5.74661 -4.94661,-5.74661 3.26288,0 11.64852,4.70067 15.22924,8.53691 1.77784,1.9047 3.63822,3.46309 4.13421,3.46309 0.49599,0 0.42973,-2.98616 -0.14721,-6.63592 -1.43827,-9.09848 -7.77178,-17.80121 -17.70412,-24.32689 -7.68728,-5.05063 -7.89982,-5.32444 -3.5153,-4.5288 2.56667,0.46577 7.58467,2.34848 11.15112,4.1838 l 6.48446,3.33694 -0.90491,-4.82358 c -1.89364,-10.09392 -2.82633,-11.11552 -15.73228,-17.23164 -10.071,-4.77264 -11.59059,-5.85591 -8.28896,-5.90895 2.22352,-0.0357 7.17352,0.74715 11,1.73972 3.82648,0.99259 6.95724,1.36585 6.95724,0.82951 0,-3.02212 -4.41075,-10.76019 -6.88955,-12.0868 -1.59168,-0.85184 -7.74266,-3.28059 -13.66886,-5.39722 l -10.77492,-3.84841 11.66666,0.61755 c 6.41667,0.33965 11.66443,0.19676 11.66168,-0.31755 -0.012,-2.16401 -5.44666,-9.61781 -8.44618,-11.58317 -1.78483,-1.16947 -8.85167,-3.50158 -15.70408,-5.18246 l -12.45894,-3.05614 6.57194,-0.90079 c 3.61454,-0.49543 9.53909,-0.50717 13.16564,-0.0261 l 6.59372,0.87468 -2.41226,-4.08362 c -2.99022,-5.06208 -6.14724,-6.60175 -21.30485,-10.39035 l -12,-2.99936 12.46427,-0.1272 12.46426,-0.1272 -2.70089,-4.33333 c -2.44701,-3.92601 -3.93196,-4.62585 -15.7976,-7.44528 -7.20319,-1.71163 -14.59671,-3.50517 -16.43004,-3.98571 -2.00197,-0.52474 1.87739,-1.14572 9.71272,-1.55472 l 13.04607,-0.68101 -4.73574,-4.86713 c -3.90394,-4.01227 -6.21456,-5.12466 -13.15528,-6.33334 -4.63074,-0.80641 -10.6204,-1.4662 -13.31032,-1.4662 -2.68993,0 -4.89078,-0.525 -4.89078,-1.16666 0,-1.49498 6.69178,-2.83334 14.16666,-2.83334 3.20834,0 5.83334,-0.54666 5.83334,-1.21481 0,-2.99391 -8.54891,-7.96956 -17.57018,-10.22621 l -9.76316,-2.44224 6.54734,-1.43796 6.54732,-1.43798 -5.78732,-4.95373 c -3.18303,-2.72455 -6.61475,-4.95373 -7.62603,-4.95373 -1.01128,0 -1.53953,-0.48404 -1.17391,-1.07564 0.36563,-0.5916 -8.71338,-10.0416 -20.1756,-21 -23.54936,-22.51428 -40.9556,-42.25491 -53.66513,-60.86231 -8.56873,-12.54507 -8.77381,-12.72941 -18.14933,-16.31485 -8.44247,-3.22862 -23.40096,-11.39174 -17.50636,-9.55354 33.79206,10.5379 75.0224,19.51731 98.77442,21.51178 14.60744,1.22658 16.52176,3.24937 22.67647,23.96122 7.28328,24.50972 19.64616,53.7637 25.10819,59.41284 4.82534,4.99067 33.18865,19.90723 52.55626,27.63991 15.74528,6.28643 22.26672,11.13601 30.14107,22.41409 3.77864,5.41198 7.05031,9.65991 7.27037,9.43984 0.64718,-0.64716 -5.01944,-19.91945 -6.98666,-23.76182 -0.9917,-1.937 -6.62139,-7.8725 -12.51043,-13.18999 -14.82099,-13.38257 -14.3848,-18.65496 1.53835,-18.59472 14.51784,0.0549 23.92516,2.33516 38.13357,9.24321 7.61317,3.70148 14.10773,6.72998 14.43235,6.72998 1.75484,0 -4.06895,-8.20484 -9.14471,-12.88352 -6.30337,-5.81024 -16.23063,-9.74574 -31.66689,-12.5538 -18.03883,-3.28151 -15.24399,-7.08728 10.66666,-14.52499 10.63334,-3.05232 22.48334,-5.89341 26.33334,-6.31355 3.85,-0.42014 7,-1.21532 7,-1.76705 0,-0.55175 -4.05,-1.99087 -9,-3.19804 l -9,-2.19487 -15.2816,4.02008 c -13.91943,3.66174 -15.55362,3.84184 -18.33334,2.02051 -4.72442,-3.09557 -3.9768,-8.51173 2.13306,-15.45289 5.41944,-6.15682 10.25424,-8.78615 30.14854,-16.39587 11.47926,-4.39089 11.76056,-4.59369 6.4825,-4.67305 -6.75639,-0.1016 -25.50771,5.20832 -37.34254,10.57449 -4.82302,2.18687 -12.75258,6.91407 -17.62122,10.50491 -4.86864,3.59082 -13.95207,9.873 -20.1854,13.96037 -13.90996,9.12117 -14.93048,9.95052 -17.94747,14.58555 -3.16913,4.86877 -4.04227,3.77706 -1.61855,-2.02371 1.05794,-2.53201 4.99279,-7.24687 8.74412,-10.47745 9.88196,-8.5102 9.28744,-10.47884 -2.35408,-7.79494 -8.26049,1.90442 -8.24526,0.68124 0.0435,-3.48294 3.92291,-1.97086 7.29709,-3.72571 7.49816,-3.89968 1.54876,-1.33995 -8.75648,-36.60696 -17.84115,-61.05671 -10.1564,-27.33409 -12.37661,-30.14067 -28.78709,-36.38964 -5.35553,-2.03933 -16.12664,-6.28988 -23.93577,-9.44563 -27.18804,-10.98696 -49.24343,-15.53054 -85.13498,-17.5385 l -16.66666,-0.93242 0.42889,-4 c 1.48096,-13.81201 12.19964,-39.709 22.07452,-53.33333 6.83159,-9.42552 25.37807,-27.88763 34.82992,-34.67147 4.4,-3.158 12.61297,-8.46672 18.25104,-11.79716 l 10.25105,-6.05533 4.56551,6.92864 c 2.51103,3.81076 8.3048,13.82865 12.87505,22.26199 9.44626,17.43088 15.75112,26.32272 27.31372,38.52098 13.99578,14.76519 18.95763,15.93602 74.07696,17.47955 56.64855,1.58636 71.61999,5.00412 100.11342,22.8544 8.02876,5.02979 14.90885,9.14507 15.28908,9.14507 0.38022,0 0.003,-1.28658 -0.83879,-2.85906 -3.14251,-5.87181 -12.58847,-14.71578 -21.94827,-20.54949 -9.9282,-6.18797 -11.66376,-8.58336 -9.82345,-13.55816 1.20923,-3.26887 5.45391,-4.69611 23.18515,-7.79588 13.74792,-2.40341 22.26745,-1.79255 38.9281,2.79127 10.43523,2.87101 10.97274,2.90133 9.71326,0.54797 -2.17286,-4.06001 -12.99115,-11.60361 -21.08178,-14.70035 -7.69856,-2.94666 -16.11317,-3.57633 -35.8899,-2.68565 -9.84934,0.44359 -13.64682,-0.86903 -13.64682,-4.71704 0,-3.25313 10.98051,-14.01156 21.01411,-20.58909 11.01036,-7.21786 16.85997,-9.39182 35.561,-13.21588 7.28297,-1.48926 13.48055,-2.94652 13.7724,-3.23838 1.67535,-1.67533 -16.75403,-3.66946 -28.98927,-3.13674 -13.42832,0.58466 -14.67714,0.90334 -29.35816,7.49189 -16.59652,7.44819 -18.66674,7.97808 -18.66674,4.77799 0,-3.27523 28.68632,-31.82863 38.2117,-38.03467 4.69394,-3.05821 8.23091,-5.86389 7.85995,-6.23485 -0.37096,-0.37096 -4.43883,0.6891 -9.03972,2.35569 -16.57425,6.00371 -25.40404,11.49144 -39.6986,24.67277 -7.7,7.10034 -16.87608,15.03251 -20.39128,17.62706 -8.83747,6.52285 -11.57657,12.43206 -11.74163,25.33081 -0.22262,17.39793 -1.7629,18.84513 -3.79293,3.56373 -1.33228,-10.02904 -1.41841,-14.56094 -0.33576,-17.66666 1.62257,-4.6545 1.48667,-4.73016 -5.08053,-2.82852 -12.15903,3.52086 -20.82358,3.95725 -39.41027,1.98488 -10.21951,-1.08447 -19.27453,-1.97819 -20.12227,-1.98603 -0.84773,-0.008 -2.49652,-2.81761 -3.66397,-6.24391 -1.16745,-3.42629 -6.90773,-14.46569 -12.75617,-24.532 -12.04264,-20.72772 -14.08143,-27.1318 -11.8903,-37.34873 1.92811,-8.99045 7.82503,-15.44657 21.51907,-23.55972 6.63913,-3.93341 12.38443,-8.54791 15.17509,-12.18832 4.64043,-6.0534 5.61215,-5.43157 2.96255,1.89579 -0.84061,2.32468 -1.12919,5.81728 -0.64127,7.76132 1.15872,4.61668 4.84384,4.62308 18.83179,0.0327 12.44387,-4.08369 17.17147,-7.65668 16.04891,-12.12932 -0.41938,-1.67093 -0.15106,-3.03538 0.5969,-3.03538 0.74731,0 1.35874,0.63373 1.35874,1.4083 0,0.77458 2.80496,2.64907 6.23324,4.16556 7.33069,3.24272 15.2577,2.82104 34.17298,-1.81786 17.76419,-4.3566 25.20152,-8.93402 47.24359,-29.07672 25.91213,-23.6793 47.13949,-44.33443 46.36184,-45.11207 -0.34308,-0.34308 -3.18605,1.73463 -6.31772,4.61713 -8.43,7.75931 -16.16416,12.69752 -30.99129,19.78776 -11.34158,5.42347 -14.91063,7.98292 -24.26603,17.40172 -9.63063,9.6959 -11.79815,11.2209 -17.76828,12.50126 -8.25627,1.77065 -9.335,1.79957 -9.335,0.25025 0,-0.6644 2.80321,-2.16315 6.22936,-3.33055 4.67536,-1.59305 8.91628,-4.88161 17,-13.18237 9.64324,-9.90216 12.65476,-12.02677 28.77064,-20.29768 16.75593,-8.59937 18.97529,-10.20812 32.11121,-23.27629 15.36152,-15.28231 20.71575,-23.89271 22.04556,-35.45256 1.02951,-8.94944 -2.90522,-14.86928 -12.19009,-18.34014 -6.25057,-2.33658 -8.63376,-2.39184 -41.30001,-0.9576 -85.0897,3.73592 -85.92906,3.83268 -123.33334,14.2185 -13.06786,3.62846 -23.8119,8.08796 -49.7575,20.65269 -49.43974,23.94227 -69.88238,31.30071 -84.00899,30.23948 -5.26899,-0.39581 -5.32583,-0.45908 -7.54595,-8.39881 -4.75021,-16.98806 -12.81652,-28.4025 -24.68756,-34.93478 l -5.33336,-2.93482 8.96815,0.0801 c 9.54518,0.0853 11.38318,-0.70892 26.71502,-11.54392 13.29088,-9.39265 30.6565,-13.69137 46.24268,-11.447 10.88711,1.56772 23.30296,0.61467 43.85819,-3.36661 15.18129,-2.94042 17.67724,-4.42494 7.54929,-4.49012 -25.0931,-0.16148 -46.10014,-6.02811 -47.10932,-13.15619 -1.31002,-9.25296 6.0751,-16.10201 29.88152,-27.712503 17.67886,-8.62205 18.03038,-8.72748 32.21751,-9.66243 l 14.34363,-0.94526 -9.33334,-3.014156 c -5.13333,-1.657785 -13.11876,-3.37233 -17.7454,-3.810098 -8.1241,-0.768696 -8.90764,-0.556612 -22.88901,6.195546 -16.32085,7.881988 -23.11627,9.161168 -23.78273,4.476908 -0.57611,-4.04915 4.70756,-23.077212 7.83689,-28.222976 1.41357,-2.324445 5.26332,-6.124594 8.555,-8.444777 3.29167,-2.320181 5.81604,-4.387323 5.60971,-4.593645 -0.80946,-0.809456 -13.89088,3.276608 -19.23163,6.007116 -6.79592,3.474482 -8.61263,6.085525 -12.48581,17.945085 -2.72495,8.343734 -8.54,16.907817 -11.48046,16.907817 -3.5822,0 -5.91397,-3.940123 -7.03804,-11.89257 -1.49176,-10.55371 0.19359,-20.276922 4.6932,-27.076285 3.70023,-5.591421 3.50516,-5.899553 -1.9491,-3.079037 -8.59875,4.446582 -12.79199,13.009637 -16.17604,33.033272 -1.02134,6.04327 -2.77351,10.71779 -5.35126,14.27626 -8.77921,12.119353 -29.01013,23.941833 -55.89865,32.665883 -20.92197,6.7882 -33.7682,13.04005 -35.75514,17.40089 -2.15253,4.72427 -1.98077,12.68794 0.48482,22.47914 1.81149,7.19366 12.48909,40.92962 13.25717,41.8861 0.15915,0.19819 4.85666,-1.80866 10.43891,-4.45966 5.58224,-2.651 10.78107,-4.6095 11.55293,-4.3522 0.77187,0.25729 -3.40758,3.71585 -9.28765,7.6857 -10.45868,7.06103 -11.51335,8.40484 -9.89871,12.61255 0.67115,1.74897 2.03699,1.43651 8.92955,-2.04284 9.07943,-4.58328 18.40872,-8.11771 19.23804,-7.28839 0.29917,0.29916 -5.49443,4.30232 -12.87465,8.8959 -10.32068,6.42374 -13.4186,9.02056 -13.4186,11.24806 0,1.59287 0.34601,3.24214 0.76893,3.66506 0.42291,0.4229 5.33103,-1.56416 10.90692,-4.4157 9.81825,-5.0211 26.66672,-11.344 27.63853,-10.3722 0.26255,0.26256 -8.16429,5.27423 -18.72632,11.13706 -17.27844,9.59101 -19.20624,11.01938 -19.22921,14.24765 -0.014,1.97339 0.51889,3.92445 1.18429,4.33568 0.6654,0.41124 5.51186,-1.69011 10.76992,-4.66965 10.53378,-5.96911 29.2146,-13.83744 30.29278,-12.75927 0.84545,0.84545 -9.35412,7.35555 -26.93918,17.19451 -26.87048,15.0342 -67.38747,45.00334 -86.02231,63.62798 -25.17417,25.16038 -45.59948,63.71872 -58.38213,110.21215 -5.35492,19.47708 -7.77192,24.07939 -15.35023,29.22897 -9.38677,6.37848 -15.95,7.5737 -40.5692,7.38798 -27.4575,-0.20715 -38.8665,1.71622 -54.34279,9.16134 -5.86667,2.82226 -14.61387,8.12488 -19.43823,11.78362 -13.427596,10.18333 -20.870226,14.29997 -33.138636,18.32948 -28.8368,9.47133 -29.30871,24.89837 -1.42313,46.5233 10.0012,7.7558 22.07519,15.00952 44.679126,26.84198 21.47657,11.2423 27.68793,15.67076 32.98754,23.51873 5.92888,8.77987 4.35312,10.0646 -3.37726,2.75353 -6.23895,-5.90053 -8.18169,-6.90657 -17,-8.80333 -25.009746,-5.37944 -37.571836,-6.24911 -47.289406,-3.27384 l -5.33333,1.63293 5.33333,0.39326 c 6.00805,0.443 32.037136,5.11237 39.666656,7.11584 2.80588,0.7368 5,2.14154 5,3.20114 0,1.94686 -2.54032,2.5745 -16.44344,4.06267 -15.498516,1.65896 -33.226616,10.39012 -39.778166,19.59092 l -2.79084,3.91937 5.1729,-2.63488 c 8.12331,-4.13773 18.5572,-6.81038 35.004266,-8.96641 11.44906,-1.50084 15.64648,-1.61592 17.03092,-0.46695 2.56104,2.12548 0.6509,4.09524 -9.44807,9.7429 -10.16803,5.68629 -18.999856,14.24321 -22.264516,21.5715 -2.20431,4.94811 -6.49386,22.35407 -6.47575,26.27708 0.004,0.86872 2.44015,-2.47534 5.41366,-7.43128 8.76282,-14.60492 18.576756,-24.20016 31.067246,-30.37488 12.24471,-6.05321 20.84513,-8.13588 20.84513,-5.04784 0,1.05348 -1.564,3.98199 -3.47555,6.50779 -5.588,7.38361 -12.21213,22.14095 -13.21656,29.44399 -1.05575,7.67621 0.43149,27.35306 1.93656,25.62152 0.5449,-0.6269 2.36609,-5.0398 4.04709,-9.80647 8.20548,-23.26756 18.14316,-38.06623 42.07643,-62.65807 8.92578,-9.1714 17.21945,-18.59546 18.43037,-20.94238 6.14904,-11.91766 0.0107,-25.53983 -20.79899,-46.15842 l -14.55937,-14.42554 -20.42858,0.42554 c -32.88693,0.68506 -22.50444,-2.85786 20.41711,-6.96712 34.74183,-3.32614 36.6295,-3.66437 35.5887,-6.37665 -0.44516,-1.16007 -1.11974,-6.93655 -1.49907,-12.83661 -0.79389,-12.34827 0.55061,-11.50888 4.17409,2.60592 1.3178,5.13333 2.81438,9.81654 3.3257,10.40714 1.22432,1.4141 8.17392,-0.3514 7.2524,-1.84242 -1.44447,-2.33722 -3.21834,-23.38398 -2.3513,-27.89806 0.78214,-4.07204 1.28915,-2.72826 3.97904,10.54594 1.69548,8.36693 3.35908,15.48898 3.69688,15.8268 0.33782,0.3378 2.20615,0.21464 4.15186,-0.27371 3.29853,-0.82788 3.48521,-1.26679 2.7617,-6.49345 -1.84029,-13.29463 -2.4941,-28.93891 -1.20941,-28.93891 0.73285,0 2.40556,6.26052 3.71711,13.91227 2.87497,16.7729 3.35766,17.77148 7.6461,15.81753 3.1286,-1.42548 3.18054,-1.73963 2.85288,-17.25752 -0.18353,-8.69309 -0.0349,-14.30561 0.33034,-12.47228 3.88521,19.50265 9.1214,40.32596 12.39765,49.30309 11.61113,31.81527 37.75752,69.45119 72.72643,104.68468 19.98893,20.14018 38.84805,36.02379 72.16197,60.77654 15.47238,11.49621 32.46288,24.98813 37.75668,29.98204 24.54395,23.1535 42.64204,52.4492 50.37975,81.55052 2.99001,11.24536 3.47956,15.87589 3.56321,33.70313 0.11307,24.08527 -2.30837,35.71632 -11.33805,54.462 -13.63287,28.30195 -50.46796,52.27844 -94.84828,61.73813 -16.53899,3.5253 -50.34412,4.19495 -66.31155,1.31358 -32.70045,-5.90091 -69.31769,-24.42963 -94.73621,-47.93756 -23.17964,-21.43734 -35.72524,-44.49155 -38.02563,-69.87718 -2.28236,-25.18662 10.01052,-54.1777 30.15297,-71.1117 12.97762,-10.91044 30.85879,-15.59315 49.2869,-12.90723 18.67785,2.72232 33.89405,10.36659 51.65404,25.94976 29.42978,25.82264 45.09005,33.50645 68.33459,33.52883 14.18749,0.0136 21.65632,-2.21435 21.0759,-6.28708 -0.38254,-2.68422 -1.03128,-2.84186 -9.94445,-2.41639 -12.98276,0.61972 -23.166,-1.71389 -35.64487,-8.16843 -8.68569,-4.49257 -13.55335,-8.48777 -27.99999,-22.9814 -9.61762,-9.6489 -21.30426,-20.1082 -25.97032,-23.24288 -48.25517,-32.41808 -103.8991,-21.446 -136.20929,26.85824 -5.12637,7.66402 -7.78908,12.89367 -7.319,14.37476 0.41796,1.31687 -0.23257,3.13374 -1.49775,4.18298 -3.65468,3.03093 -7.78917,14.56042 -4.49023,12.52157 2.04962,-1.26673 1.59238,0.40523 -1.19984,4.38732 -1.39324,1.98697 -2.92427,5.34077 -3.4023,7.45289 -0.76868,3.39642 -0.55297,3.75754 1.86651,3.12483 3.46962,-0.90733 3.39674,-0.17353 -0.63249,6.36829 -3.02207,4.90663 -4.32886,10 -2.56567,10 0.40308,0 2.55884,-0.94424 4.79057,-2.09832 6.09361,-3.15112 6.08817,-1.40038 -0.0183,5.89311 -4.67287,5.58123 -5.37444,7.19209 -4.66886,10.72004 0.98379,4.91892 1.07303,4.94111 5.58818,1.38949 4.7161,-3.70968 5.16282,-1.30968 0.98737,5.30467 -3.43357,5.43911 -4.1086,8.75717 -2.58784,12.72021 0.71096,1.85275 1.44255,1.67551 5.33334,-1.29213 5.33088,-4.06607 5.632,-2.77643 1.34038,5.74059 -2.43891,4.8402 -2.88531,7.04568 -1.93772,9.57352 1.7805,4.74976 2.1058,4.82764 5.77334,1.38216 4.61284,-4.33355 5.6941,-2.35435 2.40843,4.40854 -2.74655,5.6532 -2.74748,5.71014 -0.17596,10.72254 l 2.58524,5.03914 2.92448,-4.31565 c 4.77811,-7.05107 6.33932,-6.40227 4.17345,1.73437 -2.4097,9.05272 -2.39116,9.52839 0.51142,13.11291 l 2.42705,2.99728 2.86131,-4.84956 c 1.57369,-2.66727 3.3785,-4.84957 4.01068,-4.84957 0.63217,0 0.56354,3.63788 -0.15251,8.08418 -1.15467,7.16983 -1.00649,8.47988 1.31003,11.5826 3.76141,5.03802 4.82381,4.89219 7.55949,-1.03768 1.34376,-2.91268 2.86337,-5.29577 3.37696,-5.29577 0.51357,0 0.70841,4.05 0.43297,9 -0.45337,8.1476 -0.19412,9.28665 2.73738,12.02665 l 3.23818,3.02664 1.58912,-5.304 c 2.53594,-8.46421 4.18228,-7.8319 4.18228,1.60627 0,7.40335 0.44363,8.92969 3.40356,11.71041 2.86994,2.69616 3.5984,2.88939 4.64626,1.23243 0.68348,-1.08079 1.25188,-3.20039 1.2631,-4.71023 0.0107,-1.50984 0.90134,-3.90984 1.97802,-5.33333 1.85368,-2.45079 1.95984,-2.36164 2,1.67953 0.0869,8.7503 2.79228,17.48012 6.08577,19.63811 4.35137,2.85113 4.61643,2.72405 4.67055,-2.23915 0.026,-2.38333 0.90472,-5.83333 1.95274,-7.66666 l 1.90551,-3.33334 0.0547,4 c 0.0948,6.93268 2.82249,14.32114 6.72961,18.22828 4.50236,4.5023 7.19757,4.9512 5.94008,0.9891 -0.48575,-1.5304 -0.46535,-4.98039 0.0453,-7.66663 l 0.92847,-4.88408 2.71848,7.33333 c 3.33856,9.00608 7.10116,14.53568 10.84265,15.93458 2.54663,0.9522 2.90306,0.5101 3.50187,-4.3437 l 0.66667,-5.4038 4.26437,6.8841 c 3.99877,6.4554 10.96016,12.24585 14.73563,12.25715 0.98804,0 1.66666,-1.7368 1.66666,-4.27255 v -4.2777 l 5.66667,5.4553 c 6.34005,6.10335 10.20555,8.38455 16.68408,9.84565 4.68416,1.0565 4.73517,0.8721 1.86487,-6.7393 -0.41348,-1.0964 2.42672,0.5372 6.31156,3.6304 4.09265,3.2586 9.11213,5.9655 11.93474,6.4361 2.67928,0.4467 5.47142,1.0156 6.20475,1.2643 2.16889,0.7356 3.33333,0.7111 3.33333,-0.07 z"
         transform="translate(-40.279149,-32.001369)"
         id="path225" />
    </g>
    <g
       id="layer1"
       inkscape:label="Eye">
      <path
         style="fill:#000000;stroke-width:1.33333"
         d="m 609.58363,221.38003 c 0,-0.4368 1.13467,-2.38766 2.52148,-4.33525 1.3868,-1.9476 4.97154,-8.69804 7.96606,-15.00097 8.49302,-17.87632 16.91524,-22.20858 38.77785,-19.9467 7.72543,0.79927 13.49559,0.80164 15.5872,0.007 4.76489,-1.8116 5.19008,-1.58976 2.54816,1.32953 -1.29024,1.42571 -3.62787,2.77571 -5.19472,3 -2.27983,0.32638 -3.02303,1.63204 -3.72105,6.53722 -1.13451,7.97248 -3.90459,13.1661 -9.76819,18.31442 -10.16039,8.92092 -19.68719,11.20755 -31.90103,7.6569 -7.35192,-2.13726 -7.70864,-2.12122 -11.40832,0.51318 -3.91802,2.78962 -5.40744,3.31991 -5.40744,1.925 z"
         transform="translate(-40.279149,-32.001369)"
         id="path283" />
      <path
         style="fill:#00ffff;stroke-width:1.33333"
         d="m 642.97209,214.18091 c 10.21668,-2.83826 19.92424,-13.67158 19.93805,-22.25018 0.005,-3.06974 -0.72748,-4.47655 -2.64791,-5.08607 -4.2205,-1.33953 -5.34526,0.33053 -5.34526,7.93677 0,6.47718 -0.42343,7.4883 -4.71307,11.25466 -5.98803,5.25756 -15.4506,5.82409 -21.23823,1.27156 -3.00692,-2.36526 -3.85092,-2.54014 -4.82605,-1 -2.37473,3.75065 -1.29048,6.4374 3.11068,7.70818 5.84171,1.68674 10.08409,1.73128 15.72179,0.16508 z"
         transform="translate(-40.279149,-32.001369)"
         id="path285" />
      <path
         style="fill:#ffff00;stroke-width:1.33333"
         d="m 646.52133,202.71213 c 3.52561,-2.22154 5.25245,-9.77894 3.13744,-13.73086 -2.37343,-4.43481 -4.52578,-3.43396 -3.69007,1.7159 0.46889,2.88945 0.0231,5.53797 -1.23448,7.33333 -2.47715,3.53661 -4.93477,3.66471 -3.83508,0.19989 0.45569,-1.43577 -0.0167,-4.22372 -1.04981,-6.19544 l -1.87835,-3.58494 -5.17511,4.74262 -5.1751,4.74264 2.64809,2.94351 c 4.89685,5.44311 9.66933,5.98147 16.25247,1.83335 z"
         transform="translate(-40.279149,-32.001369)"
         id="path287" />
    </g>
    <g
       id="layer4"
       inkscape:label="Lines"
       style="fill:#000000">
      <path
         style="fill:#000000;stroke-width:1.33333"
         d="m 479.03127,241.64527 c -4.66173,-5.61705 2.85447,-12.50229 8.01479,-7.34197 2.45423,2.45423 2.53745,3.02912 0.81584,5.63531 -2.35153,3.55977 -6.60969,4.38273 -8.83063,1.70666 z"
         transform="translate(-40.279149,-32.001369)"
         id="path279" />
      <path
         style="fill:#000000;stroke-width:1.33333"
         d="m 581.79645,243.84087 c -9.2842,-9.29369 -12.74762,-17.28462 -13.34071,-30.78022 -0.44249,-10.06867 1.43089,-22.09228 3.65647,-23.46776 0.4562,-0.28195 0.87016,6.4835 0.91992,15.03434 0.1032,17.73162 2.77472,27.46776 10.10238,36.81732 6.70538,8.55555 6.8227,8.72966 5.88223,8.72966 -0.49139,0 -3.74051,-2.85 -7.22029,-6.33334 z"
         transform="translate(-40.279149,-32.001369)"
         id="path277" />
      <path
         style="fill:#000000;stroke-width:1.33333"
         d="m 436.51697,256.57421 c -2.23099,-2.23099 -1.99692,-7.0774 0.43948,-9.09944 1.55948,-1.29424 2.81473,-1.3394 5.33333,-0.19184 5.3468,2.43616 3.76351,10.89128 -2.03948,10.89128 -1.17333,0 -2.85333,-0.72 -3.73333,-1.6 z"
         transform="translate(-40.279149,-32.001369)"
         id="path275" />
      <path
         style="fill:#000000;stroke-width:1.33333"
         d="m 392.2503,279.50754 c -1.46667,-1.46667 -2.66667,-3.86667 -2.66667,-5.33333 0,-3.16111 4.47231,-8 7.39394,-8 2.21773,0 8.60606,5.75998 8.60606,7.75958 0,2.51275 -5.62781,8.24042 -8.09677,8.24042 -1.41344,0 -3.76989,-1.2 -5.23656,-2.66667 z"
         transform="translate(-40.279149,-32.001369)"
         id="path273" />
      <path
         style="fill:#000000;stroke-width:1.33333"
         d="m 478.34554,286.74563 c -2.50636,-2.50634 -2.7648,-9.06016 -0.42857,-10.86785 3.92554,-3.03747 6.52038,-2.97107 9.7407,0.24925 3.95691,3.95691 4.10874,6.53107 0.59263,10.04718 -3.20304,3.20304 -7.05115,3.42505 -9.90476,0.57142 z"
         transform="translate(-40.279149,-32.001369)"
         id="path271" />
      <path
         style="fill:#000000;stroke-width:1.33333"
         d="m 430.52593,310.15279 c -4.68866,-3.68808 -4.92768,-10.27488 -0.52303,-14.41284 3.87147,-3.63705 7.56351,-3.67854 12.06759,-0.13564 4.15325,3.26695 4.66448,8.91383 1.17981,13.03199 -3.5984,4.25259 -8.50292,4.83711 -12.72437,1.51649 z"
         transform="translate(-40.279149,-32.001369)"
         id="path269" />
      <path
         style="fill:#000000;stroke-width:1.33333"
         d="m 344.29721,312.92853 c -3.47038,-6.48448 0.14977,-12.50514 7.11106,-11.82632 5.78808,0.5644 8.70402,6.38245 5.58476,11.14304 -2.74957,4.19636 -10.58985,4.61832 -12.69582,0.68328 z"
         transform="translate(-40.279149,-32.001369)"
         id="path267" />
      <path
         style="fill:#000000;stroke-width:1.33333"
         d="m 388.30225,332.58946 c -3.60328,-3.86767 -3.44902,-9.26424 0.36732,-12.84951 8.69297,-8.16662 21.56208,2.83231 14.22598,12.15863 -3.64545,4.63445 -10.61205,4.96427 -14.5933,0.69088 z"
         transform="translate(-40.279149,-32.001369)"
         id="path265" />
      <path
         style="fill:#000000;stroke-width:1.33333"
         d="m 298.91698,359.50754 c -3.20348,-3.20348 -3.38463,-6.38161 -0.59107,-10.36999 2.98616,-4.26334 10.45629,-4.09268 13.33757,0.30471 5.4106,8.25763 -5.74506,17.06672 -12.7465,10.06528 z"
         transform="translate(-40.279149,-32.001369)"
         id="path263" />
      <path
         style="fill:#000000;stroke-width:1.33333"
         d="m 354.01187,368.61849 c -9.04496,-4.46398 -5.34753,-18.44428 4.87804,-18.44428 3.8158,0 9.36039,5.80006 9.36039,9.79168 0,6.79196 -8.0708,11.69652 -14.23843,8.6526 z"
         transform="translate(-40.279149,-32.001369)"
         id="path261" />
      <path
         style="fill:#000000;stroke-width:1.33333"
         d="m 324.69934,410.87198 c -9.34751,-6.54725 -0.0309,-21.33084 10.131,-16.07591 6.27366,3.24424 7.37757,10.40756 2.33404,15.14572 -3.58407,3.36704 -8.46583,3.73135 -12.46504,0.93019 z"
         transform="translate(-40.279149,-32.001369)"
         id="path259" />
      <path
         style="fill:#000000;stroke-width:1.33333"
         d="m 514.40937,419.46165 c -5.92978,-1.77546 -9.95395,-6.34163 -15.79476,-17.92214 -6.04822,-11.99172 -4.23007,-11.34014 5.68784,2.03836 7.32958,9.88707 8.78034,10.68054 24.61452,13.46243 l 9.33333,1.63976 -5.33333,1.00357 c -6.90791,1.29984 -13.69683,1.21842 -18.5076,-0.22198 z"
         transform="translate(-40.279149,-32.001369)"
         id="path257" />
      <path
         style="fill:#000000;stroke-width:1.33333"
         d="m 272.25031,422.54829 c -6.85211,-2.47378 -9.02117,-11.35291 -4,-16.37408 8.16469,-8.1647 21.22656,4.32668 13.66667,13.06976 -2.6067,3.01466 -6.64523,4.39514 -9.66667,3.30432 z"
         transform="translate(-40.279149,-32.001369)"
         id="path255" />
      <path
         style="fill:#000000;stroke-width:1.33333"
         d="m 308.99258,457.87753 c -4.77776,-6.8212 -1.00695,-15.70332 6.66666,-15.70332 5.74355,0 9.9244,3.93185 9.9244,9.33333 0,8.43333 -11.93597,13.01605 -16.59106,6.36999 z"
         transform="translate(-40.279149,-32.001369)"
         id="path253" />
      <path
         style="fill:#000000;stroke-width:1.33333"
         d="m 260.34708,477.32773 c -3.16418,-4.02262 -3.36654,-5.70438 -1.24632,-10.35775 2.96832,-6.51477 11.96436,-6.84225 16.34022,-0.59484 2.99166,4.2712 2.67721,7.38573 -1.13007,11.193 -4.45364,4.45364 -10.35135,4.35211 -13.96383,-0.24041 z"
         transform="translate(-40.279149,-32.001369)"
         id="path251" />
      <path
         style="fill:#000000;stroke-width:1.33333"
         d="m 309.88032,510.76527 c -4.16666,-2.91845 -4.16666,-11.59701 0,-14.51546 6.77714,-4.7469 15.70332,-0.6214 15.70332,7.25773 0,7.87913 -8.92618,12.00463 -15.70332,7.25773 z"
         transform="translate(-40.279149,-32.001369)"
         id="path249" />
      <path
         style="fill:#000000;stroke-width:1.33333"
         d="m 484.2503,516.85257 c -3.3,-2.14432 -7.2,-4.79746 -8.66667,-5.89586 -2.53042,-1.89504 -2.41229,-2.0001 2.3123,-2.05645 5.73344,-0.0684 13.65312,5.86793 12.83802,9.62295 -0.41505,1.91212 -1.33461,1.67518 -6.48365,-1.67064 z"
         transform="translate(-40.279149,-32.001369)"
         id="path247" />
      <path
         style="fill:#000000;stroke-width:1.33333"
         d="m 63.888174,520.0343 c -1.65523,-1.65524 -1.07058,-7.79153 1.02781,-10.78739 1.09945,-1.56969 4.1187,-4.16402 6.70944,-5.7652 5.23952,-3.2382 20.62488,-8.2788 20.62488,-6.75717 0,0.53489 -5.0484,3.80624 -11.21866,7.26965 -12.2516,6.87691 -13.83816,8.28379 -15.23598,13.51042 -0.51496,1.92549 -1.37332,3.06385 -1.90749,2.52969 z"
         transform="translate(-40.279149,-32.001369)"
         id="path245" />
      <path
         style="fill:#000000;stroke-width:1.33333"
         d="m 500.20838,521.20139 c -6.50207,-14.34001 -8.87464,-16.18134 -25.24907,-19.5955 -5.01257,-1.04515 -11.4227,-3.18008 -14.24472,-4.7443 -2.82202,-1.5642 -4.14005,-2.55028 -2.92894,-2.19128 1.2111,0.35902 8.22893,1.3832 15.59518,2.27598 15.0266,1.8212 22.01864,4.88554 25.75844,11.28894 2.13435,3.65452 6.82499,21.93898 5.62816,21.93898 -0.26982,0 -2.3214,-4.03778 -4.55905,-8.97282 z"
         transform="translate(-40.279149,-32.001369)"
         id="path243" />
      <path
         style="fill:#000000;stroke-width:1.33333"
         d="m 280.85638,545.56814 c -1.8,-1.8 -3.27274,-4.82727 -3.27274,-6.72727 0,-1.9 1.47274,-4.92726 3.27274,-6.72726 5.20213,-5.20215 11.48674,-4.20588 14.88162,2.35909 2.55792,4.94648 0.66603,10.59592 -4.30721,12.86188 -4.86892,2.21843 -6.93463,1.87336 -10.57441,-1.76644 z"
         transform="translate(-40.279149,-32.001369)"
         id="path241" />
      <path
         style="fill:#000000;stroke-width:1.33333"
         d="m 334.91698,567.10601 c -1.83334,-0.92208 -4.10774,-3.29155 -5.05423,-5.2655 -1.43965,-3.00244 -1.39323,-4.22264 0.28401,-7.46608 3.22042,-6.2276 8.83884,-7.2943 14.59039,-2.77012 8.48982,6.67808 -0.17346,20.35352 -9.82017,15.5017 z"
         transform="translate(-40.279149,-32.001369)"
         id="path239" />
      <path
         style="fill:#000000;stroke-width:1.33333"
         d="m 318.57812,601.84087 c -3.73262,-2.85126 -4.26544,-8.3957 -1.11002,-11.55112 5.3944,-5.3944 13.44888,-2.3362 13.44888,5.10638 0,6.56925 -7.23131,10.34626 -12.33886,6.44474 z"
         transform="translate(-40.279149,-32.001369)"
         id="path237" />
      <path
         style="fill:#000000;stroke-width:1.33333"
         d="m 366.91697,607.50754 c -5.03668,-5.03668 -1.86011,-13.33333 5.10498,-13.33333 3.22928,0 8.22835,4.34606 8.22835,7.15352 0,3.00764 -5.34403,8.84648 -8.09677,8.84648 -1.41344,0 -3.7699,-1.2 -5.23656,-2.66667 z"
         transform="translate(-40.279149,-32.001369)"
         id="path235" />
      <path
         style="fill:#000000;stroke-width:1.33333"
         d="m 358.86121,642.07002 c -1.7992,-3.36183 -0.97071,-5.91931 2.52329,-7.78924 2.03331,-1.0882 3.30528,-0.84481 5.69404,1.08948 2.712,2.19605 2.88776,2.90353 1.48573,5.98065 -1.99042,4.36851 -7.53024,4.77907 -9.70306,0.71911 z"
         transform="translate(-40.279149,-32.001369)"
         id="path233" />
      <path
         style="fill:#000000;stroke-width:1.33333"
         d="m 403.79029,643.73589 c -4.24239,-4.68779 -1.97235,-10.89502 3.98441,-10.89502 2.69371,0 7.14227,4.33712 7.14227,6.96335 0,1.718 -5.2046,6.36999 -7.12668,6.36999 -0.98635,0 -2.78635,-1.09724 -4,-2.43832 z"
         transform="translate(-40.279149,-32.001369)"
         id="path231" />
      <path
         style="fill:#000000;stroke-width:1.33333"
         d="m 398.95973,678.25411 c -2.19456,-4.10057 0.47817,-8.35877 4.91244,-7.82648 4.46486,0.53596 6.90232,4.22096 4.90349,7.41324 -2.19195,3.50074 -8.03197,3.74659 -9.81593,0.41324 z"
         transform="translate(-40.279149,-32.001369)"
         id="path229" />
      <path
         style="fill:#000000;stroke-width:1.33333"
         d="m 441.25121,681.20218 c -2.99516,-0.71461 -4.46794,-6.45703 -2.31987,-9.04529 3.50941,-4.22859 11.46113,-1.08171 10.42907,4.12729 -0.57103,2.88201 -5.10856,5.63391 -8.1092,4.918 z"
         transform="translate(-40.279149,-32.001369)"
         id="path227" />
      <path
         style="fill:#000000;stroke-width:1.33333"
         d="m 645.58363,224.27074 c 0,-0.31356 3.54855,-2.72575 7.88566,-5.3604 8.3604,-5.07868 14.59229,-11.33268 18.35568,-18.4208 1.7667,-3.32749 2.4057,-3.77873 2.79144,-1.97121 1.62005,7.59146 -8.77542,20.62125 -19.31811,24.2135 -6.10615,2.08058 -9.71467,2.6522 -9.71467,1.53891 z"
         transform="translate(-40.279149,-32.001369)"
         id="path281" />
      <path
         style="fill:#000000;stroke-width:1.33333"
         d="m 354.20339,153.72641 c -1.00513,-5.35778 0.85256,-11.40948 4.50208,-14.66626 2.48346,-2.2162 21.30344,-8.23844 22.38035,-7.16153 0.38161,0.38161 -3.57568,2.93741 -8.794,5.67955 -10.06585,5.28946 -14.6952,9.82889 -14.7286,14.44252 -0.0107,1.5511 -0.56369,3.67868 -1.22769,4.72793 -0.89286,1.41091 -1.44814,0.62383 -2.13214,-3.02221 z"
         transform="translate(-40.279149,-32.001369)"
         id="path293" />
      <path
         style="fill:#000000;stroke-width:1.33333"
         d="m 705.58363,181.24125 c 0,-0.37582 1.82284,-2.98482 4.05076,-5.79779 4.91531,-6.20609 12.20592,-10.93204 15.13226,-9.80911 2.4347,0.93428 2.91626,3.20652 0.67956,3.20652 -0.80892,0 -4.39067,2.62526 -7.95946,5.83388 -5.70317,5.12766 -11.90312,8.54794 -11.90312,6.5665 z"
         transform="translate(-40.279149,-32.001369)"
         id="path291" />
      <path
         style="fill:#000000;stroke-width:1.33333"
         d="m 618.88797,183.56174 c 0.76897,-1.43687 3.37238,-4.11829 5.78534,-5.95875 10.02312,-7.64501 17.76351,-8.78388 39.77858,-5.85277 15.74437,2.09621 12.49794,3.70947 -7.53492,3.74433 -18.18851,0.0317 -22.84191,1.00795 -31.759,6.663 -7.45224,4.72607 -8.12894,4.87762 -6.27,1.40419 z"
         transform="translate(-40.279149,-32.001369)"
         id="path289" />
    </g>
  </g>
</svg>
